<svg xmlns="http://www.w3.org/2000/svg" viewBox="0 0 100 100">
  <circle cx="50" cy="50" r="50" fill="#FDFCFB"/>
  <!-- Spa/lotus icon in primary gold color -->
  <path fill="#D4A373" d="
    M50 20
    C50 20 42 30 42 38
    C42 43 45.5 46.5 50 46.5
    C54.5 46.5 58 43 58 38
    C58 30 50 20 50 20Z
  "/>
  <path fill="#D4A373" d="
    M30 40
    C30 40 36 45 40 50
    C43 53 47 54 50 52
    C47 58 42 60 36 58
    C30 56 27 50 28 44
    C29 42 30 40 30 40Z
  "/>
  <path fill="#D4A373" d="
    M70 40
    C70 40 71 42 72 44
    C73 50 70 56 64 58
    C58 60 53 58 50 52
    C53 54 57 53 60 50
    C64 45 70 40 70 40Z
  "/>
  <circle cx="50" cy="54" r="4" fill="#C8956C"/>
</svg>
